<svg xmlns="http://www.w3.org/2000/svg" xmlns:xlink="http://www.w3.org/1999/xlink" width="150" zoomAndPan="magnify" viewBox="0 0 112.5 30.000001" height="40" preserveAspectRatio="xMidYMid meet" version="1.0"><defs><g/></defs><g fill="#cb6ce6" fill-opacity="1"><g transform="translate(4.488708, 21.922)"><g><path d="M 6.894531 -10.5 C 8.054688 -12.320312 8.898438 -15.175781 7.695312 -17.179688 C 6.59375 -19.019531 4.070312 -18.714844 2.605469 -17.523438 C 0.863281 -16.113281 0.0664062 -13.769531 0.335938 -11.570312 C 0.628906 -9.199219 2 -7.316406 3.714844 -5.734375 C 4.804688 -4.730469 6.421875 -3.65625 6.9375 -2.195312 C 7.296875 -1.15625 6.84375 -0.0546875 5.746094 0.238281 C 5.347656 0.347656 4.914062 0.359375 4.535156 0.214844 C 3.8125 -0.0546875 3.601562 -0.917969 4.320312 -1.328125 C 4.621094 -1.496094 4.351562 -1.960938 4.050781 -1.789062 C 3.433594 -1.4375 3.140625 -0.777344 3.433594 -0.0898438 C 3.757812 0.671875 4.652344 0.917969 5.414062 0.84375 C 7.71875 0.609375 8.050781 -1.777344 6.863281 -3.390625 C 5.140625 -5.734375 2.414062 -7.015625 1.3125 -9.863281 C 0.324219 -12.425781 0.84375 -15.738281 3.257812 -17.347656 C 4.890625 -18.433594 7.132812 -18.0625 7.585938 -15.972656 C 7.976562 -14.175781 7.394531 -12.285156 6.4375 -10.777344 C 6.246094 -10.480469 6.710938 -10.214844 6.894531 -10.5 Z M 6.894531 -10.5 "/></g></g></g><g fill="#cb6ce6" fill-opacity="1"><g transform="translate(12.788335, 21.922)"><g><path d="M 6.59375 -14.871094 C 5.085938 -14.960938 3.574219 -14.957031 2.070312 -14.871094 C 2.195312 -15.734375 2.324219 -16.589844 2.457031 -17.445312 C 2.574219 -17.488281 2.671875 -17.601562 2.648438 -17.761719 C 2.617188 -17.925781 2.585938 -18.097656 2.5625 -18.269531 C 2.519531 -18.519531 2.085938 -18.527344 2.042969 -18.269531 C 1.863281 -17.125 1.6875 -15.984375 1.535156 -14.839844 C -0.078125 -14.71875 -1.679688 -14.503906 -3.269531 -14.1875 C -3.550781 -14.132812 -3.503906 -13.753906 -3.269531 -13.667969 C -2.726562 -13.476562 -2.21875 -13.398438 -1.636719 -13.429688 C -1.332031 -13.441406 -1.300781 -13.867188 -1.539062 -13.949219 C -0.542969 -14.101562 0.453125 -14.214844 1.460938 -14.296875 C 1.046875 -11.15625 0.777344 -7.996094 0.847656 -4.828125 C 0.875 -3.769531 0.910156 -2.695312 1.058594 -1.648438 C 1.128906 -1.113281 1.214844 -0.148438 1.679688 0.21875 C 2.878906 1.160156 3.03125 -2.378906 3.011719 -2.859375 C 2.996094 -3.203125 2.464844 -3.203125 2.476562 -2.859375 C 2.492188 -2.488281 2.546875 -0.289062 1.859375 -0.539062 C 1.675781 -0.605469 1.566406 -1.839844 1.550781 -1.957031 C 1.515625 -2.273438 1.492188 -2.589844 1.472656 -2.910156 C 1.355469 -4.589844 1.34375 -6.277344 1.417969 -7.957031 C 1.503906 -10.089844 1.722656 -12.21875 2 -14.332031 C 3.347656 -14.414062 4.707031 -14.417969 6.0625 -14.355469 C 6.09375 -14.230469 6.214844 -14.113281 6.386719 -14.160156 C 6.605469 -14.214844 6.644531 -14.234375 6.785156 -14.414062 C 6.929688 -14.59375 6.839844 -14.851562 6.59375 -14.871094 Z M 6.59375 -14.871094 "/></g></g></g><g fill="#cb6ce6" fill-opacity="1"><g transform="translate(15.622056, 21.922)"><g><path d="M 3.941406 -7.023438 C 3.488281 -6.15625 2.761719 -5 1.707031 -4.792969 C 0.714844 -4.601562 0.359375 -5.511719 0.304688 -6.339844 C 0.300781 -6.492188 0.300781 -6.644531 0.316406 -6.789062 C 0.359375 -6.679688 0.46875 -6.589844 0.625 -6.632812 C 1.609375 -6.894531 2.964844 -7.914062 2.5625 -9.125 C 2.402344 -9.613281 1.945312 -9.699219 1.472656 -9.539062 C 0.726562 -9.285156 0.183594 -8.34375 -0.0546875 -7.632812 C -0.378906 -6.664062 -0.335938 -4.878906 0.765625 -4.363281 C 2.339844 -3.625 3.796875 -5.585938 4.402344 -6.753906 C 4.558594 -7.058594 4.101562 -7.335938 3.941406 -7.023438 Z M 0.636719 -7.902344 C 0.792969 -8.207031 1.839844 -9.523438 2.066406 -8.863281 C 2.351562 -8.019531 1.074219 -7.304688 0.484375 -7.144531 C 0.429688 -7.132812 0.386719 -7.101562 0.355469 -7.066406 C 0.410156 -7.359375 0.5 -7.640625 0.636719 -7.902344 Z M 0.636719 -7.902344 "/></g></g></g><g fill="#cb6ce6" fill-opacity="1"><g transform="translate(19.793245, 21.922)"><g><path d="M 2.835938 2.308594 C 3.039062 2.027344 2.574219 1.765625 2.371094 2.042969 C 2.46875 1.90625 1.796875 0.214844 1.734375 -0.0625 C 1.589844 -0.652344 1.472656 -1.257812 1.367188 -1.863281 C 1.160156 -3.117188 1.019531 -4.386719 0.960938 -5.660156 C 0.921875 -6.296875 0.910156 -6.9375 0.917969 -7.578125 C 1.425781 -8.53125 1.828125 -9.558594 2.167969 -10.578125 C 2.585938 -11.828125 2.886719 -13.117188 3.054688 -14.429688 C 3.148438 -15.089844 3.222656 -15.769531 3.226562 -16.441406 C 3.234375 -16.757812 3.238281 -17.164062 2.902344 -17.332031 C 1.460938 -18.074219 0.789062 -12.652344 0.695312 -11.972656 C 0.5 -10.566406 0.398438 -9.15625 0.386719 -7.738281 C 0.34375 -7.660156 0.300781 -7.585938 0.261719 -7.503906 C 0.160156 -7.425781 0.109375 -7.351562 0.105469 -7.285156 C -0.078125 -7.359375 -0.335938 -7.21875 -0.257812 -6.980469 C -0.117188 -6.5625 0.160156 -6.605469 0.386719 -6.789062 C 0.410156 -5.625 0.484375 -4.457031 0.628906 -3.300781 C 0.820312 -1.742188 1.050781 -0.128906 1.589844 1.351562 C 1.734375 1.753906 2.265625 3.082031 2.835938 2.308594 Z M 1.425781 -13.171875 C 1.515625 -13.695312 1.621094 -14.222656 1.75 -14.734375 C 1.871094 -15.207031 2.035156 -16.238281 2.421875 -16.539062 C 2.71875 -16.769531 2.648438 -16.558594 2.6875 -16.28125 C 2.726562 -16.019531 2.652344 -15.621094 2.628906 -15.351562 C 2.574219 -14.761719 2.492188 -14.167969 2.382812 -13.574219 C 2.183594 -12.457031 1.882812 -11.351562 1.503906 -10.28125 C 1.339844 -9.820312 1.148438 -9.371094 0.953125 -8.921875 C 1.019531 -10.347656 1.171875 -11.765625 1.425781 -13.171875 Z M 1.425781 -13.171875 "/></g></g></g><g fill="#cb6ce6" fill-opacity="1"><g transform="translate(22.700252, 21.922)"><g><path d="M 2.835938 2.308594 C 3.039062 2.027344 2.574219 1.765625 2.371094 2.042969 C 2.46875 1.90625 1.796875 0.214844 1.734375 -0.0625 C 1.589844 -0.652344 1.472656 -1.257812 1.367188 -1.863281 C 1.160156 -3.117188 1.019531 -4.386719 0.960938 -5.660156 C 0.921875 -6.296875 0.910156 -6.9375 0.917969 -7.578125 C 1.425781 -8.53125 1.828125 -9.558594 2.167969 -10.578125 C 2.585938 -11.828125 2.886719 -13.117188 3.054688 -14.429688 C 3.148438 -15.089844 3.222656 -15.769531 3.226562 -16.441406 C 3.234375 -16.757812 3.238281 -17.164062 2.902344 -17.332031 C 1.460938 -18.074219 0.789062 -12.652344 0.695312 -11.972656 C 0.5 -10.566406 0.398438 -9.15625 0.386719 -7.738281 C 0.34375 -7.660156 0.300781 -7.585938 0.261719 -7.503906 C 0.160156 -7.425781 0.109375 -7.351562 0.105469 -7.285156 C -0.078125 -7.359375 -0.335938 -7.21875 -0.257812 -6.980469 C -0.117188 -6.5625 0.160156 -6.605469 0.386719 -6.789062 C 0.410156 -5.625 0.484375 -4.457031 0.628906 -3.300781 C 0.820312 -1.742188 1.050781 -0.128906 1.589844 1.351562 C 1.734375 1.753906 2.265625 3.082031 2.835938 2.308594 Z M 1.425781 -13.171875 C 1.515625 -13.695312 1.621094 -14.222656 1.75 -14.734375 C 1.871094 -15.207031 2.035156 -16.238281 2.421875 -16.539062 C 2.71875 -16.769531 2.648438 -16.558594 2.6875 -16.28125 C 2.726562 -16.019531 2.652344 -15.621094 2.628906 -15.351562 C 2.574219 -14.761719 2.492188 -14.167969 2.382812 -13.574219 C 2.183594 -12.457031 1.882812 -11.351562 1.503906 -10.28125 C 1.339844 -9.820312 1.148438 -9.371094 0.953125 -8.921875 C 1.019531 -10.347656 1.171875 -11.765625 1.425781 -13.171875 Z M 1.425781 -13.171875 "/></g></g></g><g fill="#cb6ce6" fill-opacity="1"><g transform="translate(25.60726, 21.922)"><g><path d="M 4.980469 -6.917969 C 4.878906 -6.464844 4.035156 -4.625 3.445312 -4.839844 C 2.84375 -5.054688 3.050781 -7.1875 2.855469 -7.800781 C 2.769531 -8.054688 2.421875 -8.050781 2.335938 -7.800781 C 2.054688 -6.96875 1.804688 -6.117188 1.472656 -5.3125 C 1.34375 -4.992188 0.933594 -3.9375 0.371094 -4.289062 C 0.128906 -4.445312 0.214844 -5.226562 0.230469 -5.496094 C 0.292969 -6.355469 0.484375 -7.21875 0.789062 -8.03125 C 0.949219 -8.464844 1.144531 -8.929688 1.394531 -9.320312 C 1.917969 -10.132812 3.28125 -10.035156 3.105469 -8.839844 C 3.054688 -8.5 3.574219 -8.355469 3.625 -8.699219 C 3.785156 -9.777344 2.871094 -10.792969 1.742188 -10.347656 C 0.464844 -9.839844 -0.0195312 -7.519531 -0.207031 -6.34375 C -0.3125 -5.683594 -0.59375 -3.355469 0.691406 -3.601562 C 1.257812 -3.710938 1.648438 -4.402344 1.871094 -4.871094 C 2.101562 -5.378906 2.285156 -5.910156 2.457031 -6.449219 C 2.519531 -5.445312 2.632812 -4.273438 3.488281 -4.273438 C 4.472656 -4.273438 5.3125 -5.984375 5.5 -6.777344 C 5.574219 -7.113281 5.0625 -7.253906 4.980469 -6.917969 Z M 4.980469 -6.917969 "/></g></g></g><g fill="#cb6ce6" fill-opacity="1"><g transform="translate(30.834986, 21.922)"><g/></g></g><g fill="#cb6ce6" fill-opacity="1"><g transform="translate(34.086942, 21.922)"><g><path d="M 1.832031 -5.246094 C 1.664062 -4.472656 1.480469 -3.710938 1.269531 -2.953125 C 1.1875 -2.640625 0.421875 -0.695312 0.511719 -0.609375 C 0.261719 -0.84375 -0.117188 -0.464844 0.132812 -0.230469 C 0.964844 0.542969 1.429688 -1.609375 1.550781 -2.003906 C 2.113281 -3.832031 2.488281 -5.707031 2.859375 -7.585938 C 3.460938 -10.554688 4.058594 -13.53125 4.65625 -16.503906 C 4.640625 -13.355469 4.726562 -10.207031 5.1875 -7.078125 C 5.230469 -6.800781 5.636719 -6.84375 5.703125 -7.078125 C 6.605469 -10.097656 7.546875 -13.097656 8.53125 -16.09375 C 8.148438 -12.125 7.449219 -8.160156 7.914062 -4.1875 C 8.09375 -2.695312 8.300781 -0.34375 9.558594 0.691406 C 10.425781 1.40625 11.996094 0.90625 11.789062 -0.355469 C 11.734375 -0.695312 11.214844 -0.550781 11.269531 -0.214844 C 11.449219 0.84375 10.046875 0.476562 9.710938 0.0976562 C 9.414062 -0.230469 9.257812 -0.671875 9.121094 -1.089844 C 8.875 -1.804688 8.710938 -2.554688 8.582031 -3.300781 C 8.292969 -4.980469 8.261719 -6.699219 8.335938 -8.398438 C 8.488281 -11.703125 9.058594 -14.972656 9.234375 -18.273438 C 9.253906 -18.59375 8.800781 -18.625 8.710938 -18.347656 C 7.609375 -15.046875 6.558594 -11.734375 5.550781 -8.410156 C 5.117188 -12.039062 5.171875 -15.707031 5.230469 -19.367188 C 5.238281 -19.664062 4.765625 -19.734375 4.707031 -19.4375 C 4.058594 -16.234375 3.410156 -13.023438 2.769531 -9.820312 C 2.464844 -8.292969 2.167969 -6.765625 1.832031 -5.246094 Z M 1.832031 -5.246094 "/></g></g></g><g fill="#cb6ce6" fill-opacity="1"><g transform="translate(43.711823, 21.922)"><g><path d="M 4.980469 -6.917969 C 4.878906 -6.464844 4.035156 -4.625 3.445312 -4.839844 C 2.84375 -5.054688 3.050781 -7.1875 2.855469 -7.800781 C 2.769531 -8.054688 2.421875 -8.050781 2.335938 -7.800781 C 2.054688 -6.96875 1.804688 -6.117188 1.472656 -5.3125 C 1.34375 -4.992188 0.933594 -3.9375 0.371094 -4.289062 C 0.128906 -4.445312 0.214844 -5.226562 0.230469 -5.496094 C 0.292969 -6.355469 0.484375 -7.21875 0.789062 -8.03125 C 0.949219 -8.464844 1.144531 -8.929688 1.394531 -9.320312 C 1.917969 -10.132812 3.28125 -10.035156 3.105469 -8.839844 C 3.054688 -8.5 3.574219 -8.355469 3.625 -8.699219 C 3.785156 -9.777344 2.871094 -10.792969 1.742188 -10.347656 C 0.464844 -9.839844 -0.0195312 -7.519531 -0.207031 -6.34375 C -0.3125 -5.683594 -0.59375 -3.355469 0.691406 -3.601562 C 1.257812 -3.710938 1.648438 -4.402344 1.871094 -4.871094 C 2.101562 -5.378906 2.285156 -5.910156 2.457031 -6.449219 C 2.519531 -5.445312 2.632812 -4.273438 3.488281 -4.273438 C 4.472656 -4.273438 5.3125 -5.984375 5.5 -6.777344 C 5.574219 -7.113281 5.0625 -7.253906 4.980469 -6.917969 Z M 4.980469 -6.917969 "/></g></g></g><g fill="#cb6ce6" fill-opacity="1"><g transform="translate(48.93955, 21.922)"><g><path d="M 4.132812 -7.125 C 3.894531 -6.167969 3.546875 -4.726562 2.746094 -4.050781 C 1.972656 -3.40625 2.070312 -4.503906 2.128906 -5.003906 C 2.253906 -6.253906 2.792969 -7.460938 2.859375 -8.710938 C 2.878906 -9.019531 2.859375 -9.289062 2.519531 -9.414062 C 1.972656 -9.609375 1.734375 -9.050781 1.375 -8.796875 C 1.332031 -8.757812 1.269531 -8.722656 1.199219 -8.683594 C 1.398438 -9.34375 1.4375 -9.96875 1.015625 -10.1875 C 0.078125 -10.664062 -0.28125 -8.734375 0.390625 -8.136719 C 0.25 -7.75 0.078125 -7.382812 -0.128906 -7.042969 C -0.304688 -6.746094 0.160156 -6.480469 0.335938 -6.773438 C 0.457031 -6.980469 0.703125 -7.425781 0.921875 -7.925781 C 1.34375 -7.941406 1.65625 -8.359375 1.988281 -8.667969 C 2.40625 -9.058594 2.351562 -8.851562 2.28125 -8.445312 C 2.226562 -8.097656 2.132812 -7.75 2.054688 -7.40625 C 1.832031 -6.460938 1.070312 -4.414062 1.796875 -3.527344 C 3.066406 -1.988281 4.492188 -6.355469 4.644531 -6.980469 C 4.726562 -7.316406 4.210938 -7.460938 4.132812 -7.125 Z M 0.667969 -9.003906 C 0.640625 -8.90625 0.609375 -8.8125 0.585938 -8.714844 C 0.496094 -8.886719 0.53125 -9.21875 0.582031 -9.375 C 0.808594 -10.085938 0.726562 -9.265625 0.667969 -9.003906 Z M 0.667969 -9.003906 "/></g></g></g><g fill="#cb6ce6" fill-opacity="1"><g transform="translate(53.293954, 21.922)"><g><path d="M 2.597656 -6.875 C 2.324219 -6.351562 2.015625 -5.835938 1.664062 -5.359375 C 1.484375 -5.117188 1.160156 -4.613281 0.847656 -4.523438 C 0.128906 -4.304688 0.324219 -5.652344 0.367188 -6.105469 C 0.429688 -6.730469 0.921875 -8.171875 0.328125 -8.683594 C -0.164062 -9.121094 -0.734375 -8.464844 -0.933594 -8.050781 C -1.089844 -7.738281 -0.625 -7.46875 -0.476562 -7.78125 C -0.0351562 -8.164062 0.128906 -8.136719 0.0195312 -7.695312 C 0.0078125 -7.535156 -0.0117188 -7.378906 -0.03125 -7.21875 C -0.0664062 -6.902344 -0.117188 -6.582031 -0.152344 -6.265625 C -0.214844 -5.734375 -0.289062 -5.117188 -0.148438 -4.578125 C -0.0234375 -4.132812 0.292969 -3.820312 0.78125 -3.917969 C 1.839844 -4.125 2.609375 -5.75 3.0625 -6.605469 C 3.222656 -6.90625 2.757812 -7.183594 2.597656 -6.875 Z M -0.386719 -9.980469 C -0.457031 -9.949219 -0.53125 -9.917969 -0.605469 -9.882812 C -0.738281 -9.828125 -0.769531 -9.632812 -0.703125 -9.515625 C -0.625 -9.382812 -0.46875 -9.363281 -0.335938 -9.425781 C -0.261719 -9.457031 -0.191406 -9.484375 -0.117188 -9.523438 C 0.0195312 -9.578125 0.0507812 -9.773438 -0.0195312 -9.890625 C -0.0976562 -10.023438 -0.25 -10.042969 -0.386719 -9.980469 Z M -0.386719 -9.980469 "/></g></g></g><g fill="#cb6ce6" fill-opacity="1"><g transform="translate(56.139889, 21.922)"><g><path d="M 4.179688 -6.503906 C 3.34375 -6.355469 2.40625 -6.0625 1.566406 -5.609375 C 1.4375 -5.832031 1.296875 -6.042969 1.144531 -6.242188 C 0.433594 -7.15625 -0.609375 -8.066406 -0.648438 -9.320312 C -0.671875 -10.144531 0.0859375 -11.820312 1.144531 -10.921875 C 1.816406 -10.347656 1.515625 -9.277344 1.328125 -8.558594 C 1.234375 -8.222656 1.753906 -8.082031 1.847656 -8.410156 C 2.132812 -9.523438 2.292969 -11.777344 0.527344 -11.710938 C -0.988281 -11.65625 -1.40625 -9.589844 -1.019531 -8.445312 C -0.695312 -7.46875 0.457031 -6.4375 1.128906 -5.359375 C 0.410156 -4.902344 -0.214844 -4.320312 -0.597656 -3.617188 C -1.339844 -2.265625 -0.0664062 -1.15625 1.191406 -2.015625 C 2.328125 -2.792969 2.292969 -4.015625 1.820312 -5.105469 C 2.597656 -5.539062 3.441406 -5.832031 4.320312 -5.984375 C 4.664062 -6.039062 4.515625 -6.558594 4.179688 -6.503906 Z M 1.277344 -2.84375 C 1.105469 -2.605469 0.765625 -2.265625 0.433594 -2.242188 C -0.695312 -2.15625 -0.238281 -3.183594 0.0078125 -3.570312 C 0.304688 -4.039062 0.800781 -4.4375 1.253906 -4.75 C 1.308594 -4.785156 1.355469 -4.816406 1.410156 -4.851562 C 1.71875 -4.191406 1.765625 -3.519531 1.277344 -2.84375 Z M 1.277344 -2.84375 "/></g></g></g><g fill="#cb6ce6" fill-opacity="1"><g transform="translate(60.512614, 21.922)"><g/></g></g><g fill="#cb6ce6" fill-opacity="1"><g transform="translate(63.76457, 21.922)"><g><path d="M 1.804688 -0.542969 C 3.984375 1.503906 6.886719 -2.507812 7.828125 -4.09375 C 8.007812 -4.394531 7.542969 -4.664062 7.363281 -4.371094 C 6.664062 -3.171875 5.761719 -1.980469 4.625 -1.160156 C 3.929688 -0.660156 2.996094 -0.269531 2.238281 -0.878906 C 1.734375 -1.289062 1.535156 -1.960938 1.417969 -2.578125 C 0.917969 -5.214844 1.417969 -8.214844 2.210938 -10.734375 C 2.628906 -12.046875 3.171875 -13.316406 3.863281 -14.515625 C 4.199219 -15.101562 4.570312 -15.675781 5.03125 -16.179688 C 5.464844 -16.648438 6.957031 -18.042969 7.617188 -17.011719 C 8.261719 -15.996094 7.46875 -14.0625 7.011719 -13.109375 C 6.765625 -12.589844 6.480469 -12.082031 6.136719 -11.625 C 5.929688 -11.351562 6.394531 -11.082031 6.59375 -11.355469 C 7.644531 -12.75 8.519531 -14.777344 8.292969 -16.550781 C 8.183594 -17.394531 7.660156 -17.957031 6.765625 -17.859375 C 5.585938 -17.730469 4.640625 -16.648438 4.003906 -15.738281 C 2.347656 -13.390625 1.375 -10.480469 0.960938 -7.660156 C 0.75 -6.210938 0.660156 -4.710938 0.792969 -3.246094 C 0.875 -2.304688 1.074219 -1.230469 1.804688 -0.542969 Z M 1.804688 -0.542969 "/></g></g></g><g fill="#cb6ce6" fill-opacity="1"><g transform="translate(72.113055, 21.922)"><g><path d="M 3.984375 -6.765625 C 3.796875 -6.367188 3.472656 -6.191406 3.109375 -6.128906 C 3.128906 -6.199219 3.140625 -6.257812 3.152344 -6.320312 C 3.3125 -7.175781 3.117188 -8.355469 2.371094 -8.90625 C 0.90625 -9.980469 -1.058594 -7.175781 0.507812 -6.226562 C 0.539062 -6.203125 0.574219 -6.183594 0.609375 -6.160156 C 0.46875 -5.128906 0.726562 -3.960938 1.570312 -4.113281 C 2.164062 -4.21875 2.640625 -4.90625 2.914062 -5.5625 C 3.5625 -5.597656 4.144531 -5.863281 4.449219 -6.492188 C 4.597656 -6.800781 4.136719 -7.078125 3.984375 -6.765625 Z M 2.089844 -5.238281 C 1.949219 -5.054688 1.566406 -4.625 1.269531 -4.851562 C 1.125 -4.964844 1.117188 -5.421875 1.171875 -5.890625 C 1.535156 -5.75 1.925781 -5.640625 2.324219 -5.585938 C 2.253906 -5.46875 2.175781 -5.355469 2.089844 -5.238281 Z M 2.546875 -6.117188 C 2.339844 -6.136719 2.128906 -6.179688 1.925781 -6.234375 C 1.71875 -6.289062 1.484375 -6.351562 1.269531 -6.429688 C 1.363281 -6.832031 1.492188 -7.144531 1.601562 -7.101562 C 1.925781 -6.984375 2.066406 -7.503906 1.742188 -7.621094 C 1.285156 -7.785156 0.929688 -7.347656 0.738281 -6.730469 C 0.457031 -6.980469 0.359375 -7.335938 0.683594 -7.898438 C 0.964844 -8.398438 1.515625 -8.863281 2.167969 -8.367188 C 2.378906 -8.214844 2.5 -7.824219 2.566406 -7.601562 C 2.714844 -7.113281 2.703125 -6.601562 2.546875 -6.117188 Z M 2.546875 -6.117188 "/></g></g></g><g fill="#cb6ce6" fill-opacity="1"><g transform="translate(76.381958, 21.922)"><g><path d="M 8.011719 -5.464844 C 8.179688 -5.761719 7.71875 -6.039062 7.546875 -5.734375 C 7.230469 -5.175781 6.839844 -4.601562 6.199219 -4.386719 C 5.21875 -4.066406 4.707031 -4.71875 4.460938 -5.554688 C 4.113281 -6.742188 4.21875 -8.019531 4.289062 -9.234375 C 4.308594 -9.527344 3.9375 -9.558594 3.789062 -9.371094 C 3.117188 -8.484375 2.578125 -7.53125 2.183594 -6.507812 C 2.15625 -6.925781 2.152344 -7.347656 2.15625 -7.769531 C 2.164062 -8.019531 1.765625 -8.160156 1.65625 -7.902344 C 1.480469 -7.480469 1.296875 -7.054688 1.117188 -6.625 C 1.003906 -6.363281 0.890625 -5.988281 0.722656 -5.703125 C 0.59375 -6.296875 0.550781 -6.875 0.585938 -7.476562 C 0.617188 -7.519531 0.636719 -7.574219 0.636719 -7.640625 C 0.636719 -7.761719 0.636719 -7.882812 0.636719 -8.007812 C 0.628906 -8.359375 0.140625 -8.335938 0.0976562 -8.007812 C -0.03125 -7.003906 0.0429688 -6.050781 0.316406 -5.078125 C 0.367188 -4.925781 0.570312 -4.816406 0.714844 -4.921875 C 1.15625 -5.238281 1.4375 -5.800781 1.65625 -6.382812 C 1.6875 -5.972656 1.730469 -5.566406 1.785156 -5.164062 C 1.820312 -4.894531 2.238281 -4.933594 2.304688 -5.164062 C 2.609375 -6.289062 3.074219 -7.328125 3.691406 -8.292969 C 3.601562 -6.800781 3.601562 -4.847656 4.753906 -4.046875 C 6.050781 -3.148438 7.394531 -4.382812 8.011719 -5.464844 Z M 8.011719 -5.464844 "/></g></g></g><g fill="#cb6ce6" fill-opacity="1"><g transform="translate(84.174692, 21.922)"><g><path d="M 2.597656 -6.875 C 2.324219 -6.351562 2.015625 -5.835938 1.664062 -5.359375 C 1.484375 -5.117188 1.160156 -4.613281 0.847656 -4.523438 C 0.128906 -4.304688 0.324219 -5.652344 0.367188 -6.105469 C 0.429688 -6.730469 0.921875 -8.171875 0.328125 -8.683594 C -0.164062 -9.121094 -0.734375 -8.464844 -0.933594 -8.050781 C -1.089844 -7.738281 -0.625 -7.46875 -0.476562 -7.78125 C -0.0351562 -8.164062 0.128906 -8.136719 0.0195312 -7.695312 C 0.0078125 -7.535156 -0.0117188 -7.378906 -0.03125 -7.21875 C -0.0664062 -6.902344 -0.117188 -6.582031 -0.152344 -6.265625 C -0.214844 -5.734375 -0.289062 -5.117188 -0.148438 -4.578125 C -0.0234375 -4.132812 0.292969 -3.820312 0.78125 -3.917969 C 1.839844 -4.125 2.609375 -5.75 3.0625 -6.605469 C 3.222656 -6.90625 2.757812 -7.183594 2.597656 -6.875 Z M -0.386719 -9.980469 C -0.457031 -9.949219 -0.53125 -9.917969 -0.605469 -9.882812 C -0.738281 -9.828125 -0.769531 -9.632812 -0.703125 -9.515625 C -0.625 -9.382812 -0.46875 -9.363281 -0.335938 -9.425781 C -0.261719 -9.457031 -0.191406 -9.484375 -0.117188 -9.523438 C 0.0195312 -9.578125 0.0507812 -9.773438 -0.0195312 -9.890625 C -0.0976562 -10.023438 -0.25 -10.042969 -0.386719 -9.980469 Z M -0.386719 -9.980469 "/></g></g></g><g fill="#cb6ce6" fill-opacity="1"><g transform="translate(87.020627, 21.922)"><g><path d="M 5.371094 -6.882812 C 5.085938 -6.523438 4.554688 -5.746094 4.082031 -5.625 C 3.039062 -5.355469 3.007812 -7.574219 2.847656 -8.109375 C 2.785156 -8.304688 2.542969 -8.375 2.402344 -8.234375 C 1.667969 -7.5 1.296875 -6.550781 0.671875 -5.746094 C 0.53125 -5.566406 0.457031 -5.335938 0.324219 -5.457031 C 0.257812 -5.519531 0.371094 -6.351562 0.386719 -6.4375 C 0.421875 -6.917969 0.488281 -7.390625 0.570312 -7.867188 C 0.691406 -7.871094 0.800781 -7.957031 0.78125 -8.117188 C 0.765625 -8.3125 0.738281 -8.5 0.722656 -8.699219 C 0.691406 -8.972656 0.257812 -9.089844 0.191406 -8.769531 C 0.0078125 -7.835938 -0.128906 -6.902344 -0.191406 -5.945312 C -0.214844 -5.59375 -0.316406 -4.894531 0.183594 -4.78125 C 0.59375 -4.683594 0.921875 -5.183594 1.117188 -5.445312 C 1.609375 -6.085938 1.945312 -6.820312 2.433594 -7.457031 C 2.574219 -6.527344 2.628906 -5.230469 3.585938 -5.019531 C 4.457031 -4.824219 5.285156 -5.921875 5.75 -6.503906 C 5.964844 -6.773438 5.59375 -7.152344 5.371094 -6.882812 Z M 5.371094 -6.882812 "/></g></g></g><g fill="#cb6ce6" fill-opacity="1"><g transform="translate(92.559819, 21.922)"><g><path d="M 3.984375 -6.765625 C 3.796875 -6.367188 3.472656 -6.191406 3.109375 -6.128906 C 3.128906 -6.199219 3.140625 -6.257812 3.152344 -6.320312 C 3.3125 -7.175781 3.117188 -8.355469 2.371094 -8.90625 C 0.90625 -9.980469 -1.058594 -7.175781 0.507812 -6.226562 C 0.539062 -6.203125 0.574219 -6.183594 0.609375 -6.160156 C 0.46875 -5.128906 0.726562 -3.960938 1.570312 -4.113281 C 2.164062 -4.21875 2.640625 -4.90625 2.914062 -5.5625 C 3.5625 -5.597656 4.144531 -5.863281 4.449219 -6.492188 C 4.597656 -6.800781 4.136719 -7.078125 3.984375 -6.765625 Z M 2.089844 -5.238281 C 1.949219 -5.054688 1.566406 -4.625 1.269531 -4.851562 C 1.125 -4.964844 1.117188 -5.421875 1.171875 -5.890625 C 1.535156 -5.75 1.925781 -5.640625 2.324219 -5.585938 C 2.253906 -5.46875 2.175781 -5.355469 2.089844 -5.238281 Z M 2.546875 -6.117188 C 2.339844 -6.136719 2.128906 -6.179688 1.925781 -6.234375 C 1.71875 -6.289062 1.484375 -6.351562 1.269531 -6.429688 C 1.363281 -6.832031 1.492188 -7.144531 1.601562 -7.101562 C 1.925781 -6.984375 2.066406 -7.503906 1.742188 -7.621094 C 1.285156 -7.785156 0.929688 -7.347656 0.738281 -6.730469 C 0.457031 -6.980469 0.359375 -7.335938 0.683594 -7.898438 C 0.964844 -8.398438 1.515625 -8.863281 2.167969 -8.367188 C 2.378906 -8.214844 2.5 -7.824219 2.566406 -7.601562 C 2.714844 -7.113281 2.703125 -6.601562 2.546875 -6.117188 Z M 2.546875 -6.117188 "/></g></g></g><g fill="#cb6ce6" fill-opacity="1"><g transform="translate(96.828723, 21.922)"><g><path d="M 6.59375 -14.871094 C 5.085938 -14.960938 3.574219 -14.957031 2.070312 -14.871094 C 2.195312 -15.734375 2.324219 -16.589844 2.457031 -17.445312 C 2.574219 -17.488281 2.671875 -17.601562 2.648438 -17.761719 C 2.617188 -17.925781 2.585938 -18.097656 2.5625 -18.269531 C 2.519531 -18.519531 2.085938 -18.527344 2.042969 -18.269531 C 1.863281 -17.125 1.6875 -15.984375 1.535156 -14.839844 C -0.078125 -14.71875 -1.679688 -14.503906 -3.269531 -14.1875 C -3.550781 -14.132812 -3.503906 -13.753906 -3.269531 -13.667969 C -2.726562 -13.476562 -2.21875 -13.398438 -1.636719 -13.429688 C -1.332031 -13.441406 -1.300781 -13.867188 -1.539062 -13.949219 C -0.542969 -14.101562 0.453125 -14.214844 1.460938 -14.296875 C 1.046875 -11.15625 0.777344 -7.996094 0.847656 -4.828125 C 0.875 -3.769531 0.910156 -2.695312 1.058594 -1.648438 C 1.128906 -1.113281 1.214844 -0.148438 1.679688 0.21875 C 2.878906 1.160156 3.03125 -2.378906 3.011719 -2.859375 C 2.996094 -3.203125 2.464844 -3.203125 2.476562 -2.859375 C 2.492188 -2.488281 2.546875 -0.289062 1.859375 -0.539062 C 1.675781 -0.605469 1.566406 -1.839844 1.550781 -1.957031 C 1.515625 -2.273438 1.492188 -2.589844 1.472656 -2.910156 C 1.355469 -4.589844 1.34375 -6.277344 1.417969 -7.957031 C 1.503906 -10.089844 1.722656 -12.21875 2 -14.332031 C 3.347656 -14.414062 4.707031 -14.417969 6.0625 -14.355469 C 6.09375 -14.230469 6.214844 -14.113281 6.386719 -14.160156 C 6.605469 -14.214844 6.644531 -14.234375 6.785156 -14.414062 C 6.929688 -14.59375 6.839844 -14.851562 6.59375 -14.871094 Z M 6.59375 -14.871094 "/></g></g></g><g fill="#cb6ce6" fill-opacity="1"><g transform="translate(99.662444, 21.922)"><g><path d="M 6.59375 -14.871094 C 5.085938 -14.960938 3.574219 -14.957031 2.070312 -14.871094 C 2.195312 -15.734375 2.324219 -16.589844 2.457031 -17.445312 C 2.574219 -17.488281 2.671875 -17.601562 2.648438 -17.761719 C 2.617188 -17.925781 2.585938 -18.097656 2.5625 -18.269531 C 2.519531 -18.519531 2.085938 -18.527344 2.042969 -18.269531 C 1.863281 -17.125 1.6875 -15.984375 1.535156 -14.839844 C -0.078125 -14.71875 -1.679688 -14.503906 -3.269531 -14.1875 C -3.550781 -14.132812 -3.503906 -13.753906 -3.269531 -13.667969 C -2.726562 -13.476562 -2.21875 -13.398438 -1.636719 -13.429688 C -1.332031 -13.441406 -1.300781 -13.867188 -1.539062 -13.949219 C -0.542969 -14.101562 0.453125 -14.214844 1.460938 -14.296875 C 1.046875 -11.15625 0.777344 -7.996094 0.847656 -4.828125 C 0.875 -3.769531 0.910156 -2.695312 1.058594 -1.648438 C 1.128906 -1.113281 1.214844 -0.148438 1.679688 0.21875 C 2.878906 1.160156 3.03125 -2.378906 3.011719 -2.859375 C 2.996094 -3.203125 2.464844 -3.203125 2.476562 -2.859375 C 2.492188 -2.488281 2.546875 -0.289062 1.859375 -0.539062 C 1.675781 -0.605469 1.566406 -1.839844 1.550781 -1.957031 C 1.515625 -2.273438 1.492188 -2.589844 1.472656 -2.910156 C 1.355469 -4.589844 1.34375 -6.277344 1.417969 -7.957031 C 1.503906 -10.089844 1.722656 -12.21875 2 -14.332031 C 3.347656 -14.414062 4.707031 -14.417969 6.0625 -14.355469 C 6.09375 -14.230469 6.214844 -14.113281 6.386719 -14.160156 C 6.605469 -14.214844 6.644531 -14.234375 6.785156 -14.414062 C 6.929688 -14.59375 6.839844 -14.851562 6.59375 -14.871094 Z M 6.59375 -14.871094 "/></g></g></g><g fill="#cb6ce6" fill-opacity="1"><g transform="translate(102.496165, 21.922)"><g><path d="M 2.597656 -6.875 C 2.324219 -6.351562 2.015625 -5.835938 1.664062 -5.359375 C 1.484375 -5.117188 1.160156 -4.613281 0.847656 -4.523438 C 0.128906 -4.304688 0.324219 -5.652344 0.367188 -6.105469 C 0.429688 -6.730469 0.921875 -8.171875 0.328125 -8.683594 C -0.164062 -9.121094 -0.734375 -8.464844 -0.933594 -8.050781 C -1.089844 -7.738281 -0.625 -7.46875 -0.476562 -7.78125 C -0.0351562 -8.164062 0.128906 -8.136719 0.0195312 -7.695312 C 0.0078125 -7.535156 -0.0117188 -7.378906 -0.03125 -7.21875 C -0.0664062 -6.902344 -0.117188 -6.582031 -0.152344 -6.265625 C -0.214844 -5.734375 -0.289062 -5.117188 -0.148438 -4.578125 C -0.0234375 -4.132812 0.292969 -3.820312 0.78125 -3.917969 C 1.839844 -4.125 2.609375 -5.75 3.0625 -6.605469 C 3.222656 -6.90625 2.757812 -7.183594 2.597656 -6.875 Z M -0.386719 -9.980469 C -0.457031 -9.949219 -0.53125 -9.917969 -0.605469 -9.882812 C -0.738281 -9.828125 -0.769531 -9.632812 -0.703125 -9.515625 C -0.625 -9.382812 -0.46875 -9.363281 -0.335938 -9.425781 C -0.261719 -9.457031 -0.191406 -9.484375 -0.117188 -9.523438 C 0.0195312 -9.578125 0.0507812 -9.773438 -0.0195312 -9.890625 C -0.0976562 -10.023438 -0.25 -10.042969 -0.386719 -9.980469 Z M -0.386719 -9.980469 "/></g></g></g></svg>