<svg xmlns="http://www.w3.org/2000/svg" xmlns:xlink="http://www.w3.org/1999/xlink" width="150" zoomAndPan="magnify" viewBox="0 0 112.5 30.000001" height="40" preserveAspectRatio="xMidYMid meet" version="1.0"><defs><g/></defs><g fill="#8c52ff" fill-opacity="1"><g transform="translate(4.475805, 21.825)"><g><path d="M 6.863281 -10.453125 C 8.019531 -12.265625 8.859375 -15.109375 7.660156 -17.105469 C 6.566406 -18.9375 4.050781 -18.632812 2.59375 -17.445312 C 0.859375 -16.039062 0.0664062 -13.710938 0.335938 -11.519531 C 0.625 -9.15625 1.988281 -7.285156 3.699219 -5.707031 C 4.78125 -4.710938 6.394531 -3.640625 6.90625 -2.183594 C 7.265625 -1.148438 6.816406 -0.0546875 5.71875 0.238281 C 5.324219 0.347656 4.890625 0.359375 4.515625 0.214844 C 3.796875 -0.0546875 3.585938 -0.914062 4.300781 -1.320312 C 4.601562 -1.492188 4.332031 -1.953125 4.035156 -1.78125 C 3.417969 -1.429688 3.128906 -0.773438 3.417969 -0.0898438 C 3.742188 0.667969 4.628906 0.914062 5.390625 0.839844 C 7.683594 0.609375 8.015625 -1.769531 6.832031 -3.378906 C 5.117188 -5.707031 2.402344 -6.984375 1.308594 -9.820312 C 0.324219 -12.371094 0.839844 -15.667969 3.242188 -17.269531 C 4.867188 -18.351562 7.101562 -17.980469 7.550781 -15.898438 C 7.941406 -14.109375 7.363281 -12.230469 6.40625 -10.726562 C 6.21875 -10.4375 6.679688 -10.167969 6.863281 -10.453125 Z M 6.863281 -10.453125 "/></g></g></g><g fill="#8c52ff" fill-opacity="1"><g transform="translate(12.738708, 21.825)"><g><path d="M 6.566406 -14.804688 C 5.0625 -14.894531 3.558594 -14.890625 2.0625 -14.804688 C 2.183594 -15.664062 2.3125 -16.515625 2.445312 -17.367188 C 2.5625 -17.410156 2.660156 -17.523438 2.636719 -17.683594 C 2.605469 -17.847656 2.574219 -18.019531 2.550781 -18.1875 C 2.507812 -18.4375 2.074219 -18.445312 2.03125 -18.1875 C 1.855469 -17.050781 1.679688 -15.914062 1.527344 -14.773438 C -0.078125 -14.652344 -1.671875 -14.441406 -3.253906 -14.125 C -3.535156 -14.070312 -3.488281 -13.691406 -3.253906 -13.605469 C -2.714844 -13.417969 -2.207031 -13.339844 -1.628906 -13.367188 C -1.328125 -13.382812 -1.296875 -13.808594 -1.535156 -13.886719 C -0.542969 -14.039062 0.449219 -14.152344 1.453125 -14.234375 C 1.039062 -11.105469 0.773438 -7.960938 0.847656 -4.808594 C 0.871094 -3.753906 0.90625 -2.683594 1.050781 -1.644531 C 1.125 -1.109375 1.210938 -0.144531 1.671875 0.21875 C 2.867188 1.15625 3.019531 -2.367188 3 -2.847656 C 2.980469 -3.1875 2.453125 -3.1875 2.464844 -2.847656 C 2.484375 -2.476562 2.539062 -0.285156 1.851562 -0.535156 C 1.667969 -0.601562 1.558594 -1.832031 1.546875 -1.945312 C 1.507812 -2.261719 1.484375 -2.578125 1.464844 -2.894531 C 1.351562 -4.570312 1.339844 -6.25 1.410156 -7.921875 C 1.496094 -10.046875 1.714844 -12.164062 1.988281 -14.269531 C 3.335938 -14.347656 4.683594 -14.355469 6.035156 -14.292969 C 6.066406 -14.164062 6.1875 -14.050781 6.359375 -14.097656 C 6.578125 -14.152344 6.613281 -14.171875 6.753906 -14.347656 C 6.902344 -14.53125 6.808594 -14.785156 6.566406 -14.804688 Z M 6.566406 -14.804688 "/></g></g></g><g fill="#8c52ff" fill-opacity="1"><g transform="translate(15.559891, 21.825)"><g><path d="M 3.925781 -6.992188 C 3.472656 -6.128906 2.75 -4.976562 1.699219 -4.769531 C 0.710938 -4.582031 0.359375 -5.488281 0.304688 -6.308594 C 0.296875 -6.460938 0.296875 -6.613281 0.316406 -6.761719 C 0.359375 -6.652344 0.46875 -6.558594 0.621094 -6.601562 C 1.601562 -6.863281 2.953125 -7.878906 2.550781 -9.085938 C 2.390625 -9.570312 1.933594 -9.65625 1.464844 -9.5 C 0.722656 -9.242188 0.183594 -8.304688 -0.0546875 -7.601562 C -0.378906 -6.632812 -0.335938 -4.855469 0.761719 -4.34375 C 2.332031 -3.609375 3.777344 -5.5625 4.382812 -6.722656 C 4.539062 -7.027344 4.082031 -7.300781 3.925781 -6.992188 Z M 0.632812 -7.867188 C 0.792969 -8.171875 1.832031 -9.480469 2.058594 -8.824219 C 2.34375 -7.984375 1.070312 -7.273438 0.480469 -7.113281 C 0.425781 -7.101562 0.382812 -7.070312 0.351562 -7.035156 C 0.40625 -7.328125 0.5 -7.605469 0.632812 -7.867188 Z M 0.632812 -7.867188 "/></g></g></g><g fill="#8c52ff" fill-opacity="1"><g transform="translate(19.712623, 21.825)"><g><path d="M 2.824219 2.300781 C 3.023438 2.019531 2.5625 1.757812 2.359375 2.03125 C 2.457031 1.898438 1.789062 0.214844 1.726562 -0.0625 C 1.582031 -0.652344 1.464844 -1.253906 1.363281 -1.855469 C 1.15625 -3.101562 1.015625 -4.367188 0.957031 -5.632812 C 0.917969 -6.265625 0.90625 -6.90625 0.914062 -7.546875 C 1.417969 -8.496094 1.820312 -9.515625 2.160156 -10.53125 C 2.574219 -11.773438 2.871094 -13.058594 3.042969 -14.367188 C 3.132812 -15.023438 3.207031 -15.699219 3.210938 -16.367188 C 3.21875 -16.683594 3.226562 -17.085938 2.890625 -17.257812 C 1.453125 -17.992188 0.785156 -12.597656 0.695312 -11.921875 C 0.5 -10.519531 0.394531 -9.117188 0.382812 -7.703125 C 0.339844 -7.625 0.296875 -7.550781 0.261719 -7.472656 C 0.160156 -7.394531 0.109375 -7.320312 0.101562 -7.253906 C -0.078125 -7.328125 -0.335938 -7.1875 -0.253906 -6.949219 C -0.117188 -6.535156 0.160156 -6.578125 0.382812 -6.761719 C 0.40625 -5.597656 0.480469 -4.4375 0.625 -3.285156 C 0.816406 -1.734375 1.046875 -0.128906 1.582031 1.34375 C 1.726562 1.746094 2.257812 3.066406 2.824219 2.300781 Z M 1.417969 -13.113281 C 1.507812 -13.636719 1.613281 -14.160156 1.742188 -14.671875 C 1.863281 -15.140625 2.027344 -16.167969 2.410156 -16.464844 C 2.707031 -16.695312 2.636719 -16.484375 2.675781 -16.210938 C 2.714844 -15.949219 2.640625 -15.554688 2.617188 -15.285156 C 2.5625 -14.695312 2.484375 -14.105469 2.375 -13.515625 C 2.171875 -12.402344 1.875 -11.300781 1.496094 -10.234375 C 1.332031 -9.777344 1.144531 -9.328125 0.949219 -8.882812 C 1.015625 -10.300781 1.167969 -11.714844 1.417969 -13.113281 Z M 1.417969 -13.113281 "/></g></g></g><g fill="#8c52ff" fill-opacity="1"><g transform="translate(22.606768, 21.825)"><g><path d="M 2.824219 2.300781 C 3.023438 2.019531 2.5625 1.757812 2.359375 2.03125 C 2.457031 1.898438 1.789062 0.214844 1.726562 -0.0625 C 1.582031 -0.652344 1.464844 -1.253906 1.363281 -1.855469 C 1.15625 -3.101562 1.015625 -4.367188 0.957031 -5.632812 C 0.917969 -6.265625 0.90625 -6.90625 0.914062 -7.546875 C 1.417969 -8.496094 1.820312 -9.515625 2.160156 -10.53125 C 2.574219 -11.773438 2.871094 -13.058594 3.042969 -14.367188 C 3.132812 -15.023438 3.207031 -15.699219 3.210938 -16.367188 C 3.21875 -16.683594 3.226562 -17.085938 2.890625 -17.257812 C 1.453125 -17.992188 0.785156 -12.597656 0.695312 -11.921875 C 0.5 -10.519531 0.394531 -9.117188 0.382812 -7.703125 C 0.339844 -7.625 0.296875 -7.550781 0.261719 -7.472656 C 0.160156 -7.394531 0.109375 -7.320312 0.101562 -7.253906 C -0.078125 -7.328125 -0.335938 -7.1875 -0.253906 -6.949219 C -0.117188 -6.535156 0.160156 -6.578125 0.382812 -6.761719 C 0.40625 -5.597656 0.480469 -4.4375 0.625 -3.285156 C 0.816406 -1.734375 1.046875 -0.128906 1.582031 1.34375 C 1.726562 1.746094 2.257812 3.066406 2.824219 2.300781 Z M 1.417969 -13.113281 C 1.507812 -13.636719 1.613281 -14.160156 1.742188 -14.671875 C 1.863281 -15.140625 2.027344 -16.167969 2.410156 -16.464844 C 2.707031 -16.695312 2.636719 -16.484375 2.675781 -16.210938 C 2.714844 -15.949219 2.640625 -15.554688 2.617188 -15.285156 C 2.5625 -14.695312 2.484375 -14.105469 2.375 -13.515625 C 2.171875 -12.402344 1.875 -11.300781 1.496094 -10.234375 C 1.332031 -9.777344 1.144531 -9.328125 0.949219 -8.882812 C 1.015625 -10.300781 1.167969 -11.714844 1.417969 -13.113281 Z M 1.417969 -13.113281 "/></g></g></g><g fill="#8c52ff" fill-opacity="1"><g transform="translate(25.500912, 21.825)"><g><path d="M 4.960938 -6.886719 C 4.855469 -6.4375 4.015625 -4.605469 3.433594 -4.820312 C 2.828125 -5.03125 3.035156 -7.15625 2.839844 -7.765625 C 2.757812 -8.019531 2.410156 -8.015625 2.324219 -7.765625 C 2.042969 -6.9375 1.796875 -6.089844 1.464844 -5.289062 C 1.339844 -4.972656 0.929688 -3.917969 0.371094 -4.273438 C 0.128906 -4.421875 0.214844 -5.203125 0.230469 -5.46875 C 0.292969 -6.328125 0.480469 -7.1875 0.785156 -7.996094 C 0.941406 -8.429688 1.136719 -8.890625 1.386719 -9.28125 C 1.910156 -10.089844 3.269531 -9.992188 3.089844 -8.800781 C 3.042969 -8.464844 3.558594 -8.316406 3.609375 -8.660156 C 3.765625 -9.734375 2.859375 -10.746094 1.734375 -10.300781 C 0.460938 -9.796875 -0.0195312 -7.484375 -0.207031 -6.316406 C -0.308594 -5.660156 -0.589844 -3.339844 0.6875 -3.585938 C 1.253906 -3.695312 1.644531 -4.382812 1.863281 -4.851562 C 2.09375 -5.355469 2.277344 -5.882812 2.445312 -6.417969 C 2.507812 -5.421875 2.621094 -4.253906 3.472656 -4.253906 C 4.453125 -4.253906 5.289062 -5.957031 5.476562 -6.75 C 5.550781 -7.082031 5.039062 -7.222656 4.960938 -6.886719 Z M 4.960938 -6.886719 "/></g></g></g><g fill="#8c52ff" fill-opacity="1"><g transform="translate(30.705507, 21.825)"><g/></g></g><g fill="#8c52ff" fill-opacity="1"><g transform="translate(33.943075, 21.825)"><g><path d="M 1.824219 -5.222656 C 1.65625 -4.453125 1.472656 -3.695312 1.265625 -2.9375 C 1.179688 -2.628906 0.417969 -0.695312 0.511719 -0.609375 C 0.261719 -0.839844 -0.117188 -0.460938 0.132812 -0.230469 C 0.960938 0.542969 1.425781 -1.601562 1.546875 -1.996094 C 2.105469 -3.816406 2.476562 -5.683594 2.847656 -7.550781 C 3.445312 -10.507812 4.039062 -13.472656 4.636719 -16.429688 C 4.617188 -13.296875 4.703125 -10.160156 5.167969 -7.046875 C 5.207031 -6.773438 5.609375 -6.816406 5.675781 -7.046875 C 6.578125 -10.050781 7.515625 -13.039062 8.496094 -16.023438 C 8.109375 -12.074219 7.417969 -8.125 7.878906 -4.167969 C 8.054688 -2.683594 8.261719 -0.339844 9.515625 0.6875 C 10.382812 1.398438 11.945312 0.902344 11.738281 -0.351562 C 11.683594 -0.695312 11.164062 -0.546875 11.222656 -0.214844 C 11.398438 0.839844 10.003906 0.476562 9.667969 0.0976562 C 9.371094 -0.230469 9.21875 -0.667969 9.078125 -1.082031 C 8.835938 -1.796875 8.671875 -2.542969 8.542969 -3.285156 C 8.257812 -4.960938 8.226562 -6.667969 8.300781 -8.359375 C 8.453125 -11.652344 9.019531 -14.910156 9.195312 -18.195312 C 9.210938 -18.511719 8.761719 -18.542969 8.671875 -18.265625 C 7.574219 -14.980469 6.527344 -11.683594 5.523438 -8.371094 C 5.09375 -11.988281 5.148438 -15.636719 5.207031 -19.285156 C 5.214844 -19.574219 4.746094 -19.648438 4.683594 -19.351562 C 4.039062 -16.160156 3.394531 -12.96875 2.757812 -9.777344 C 2.453125 -8.257812 2.160156 -6.734375 1.824219 -5.222656 Z M 1.824219 -5.222656 "/></g></g></g><g fill="#8c52ff" fill-opacity="1"><g transform="translate(43.525368, 21.825)"><g><path d="M 4.960938 -6.886719 C 4.855469 -6.4375 4.015625 -4.605469 3.433594 -4.820312 C 2.828125 -5.03125 3.035156 -7.15625 2.839844 -7.765625 C 2.757812 -8.019531 2.410156 -8.015625 2.324219 -7.765625 C 2.042969 -6.9375 1.796875 -6.089844 1.464844 -5.289062 C 1.339844 -4.972656 0.929688 -3.917969 0.371094 -4.273438 C 0.128906 -4.421875 0.214844 -5.203125 0.230469 -5.46875 C 0.292969 -6.328125 0.480469 -7.1875 0.785156 -7.996094 C 0.941406 -8.429688 1.136719 -8.890625 1.386719 -9.28125 C 1.910156 -10.089844 3.269531 -9.992188 3.089844 -8.800781 C 3.042969 -8.464844 3.558594 -8.316406 3.609375 -8.660156 C 3.765625 -9.734375 2.859375 -10.746094 1.734375 -10.300781 C 0.460938 -9.796875 -0.0195312 -7.484375 -0.207031 -6.316406 C -0.308594 -5.660156 -0.589844 -3.339844 0.6875 -3.585938 C 1.253906 -3.695312 1.644531 -4.382812 1.863281 -4.851562 C 2.09375 -5.355469 2.277344 -5.882812 2.445312 -6.417969 C 2.507812 -5.421875 2.621094 -4.253906 3.472656 -4.253906 C 4.453125 -4.253906 5.289062 -5.957031 5.476562 -6.75 C 5.550781 -7.082031 5.039062 -7.222656 4.960938 -6.886719 Z M 4.960938 -6.886719 "/></g></g></g><g fill="#8c52ff" fill-opacity="1"><g transform="translate(48.729963, 21.825)"><g><path d="M 4.113281 -7.09375 C 3.875 -6.140625 3.53125 -4.703125 2.730469 -4.035156 C 1.964844 -3.390625 2.0625 -4.484375 2.117188 -4.984375 C 2.246094 -6.226562 2.78125 -7.429688 2.847656 -8.671875 C 2.867188 -8.980469 2.847656 -9.25 2.507812 -9.371094 C 1.964844 -9.566406 1.726562 -9.011719 1.367188 -8.757812 C 1.328125 -8.71875 1.265625 -8.683594 1.191406 -8.648438 C 1.394531 -9.304688 1.429688 -9.925781 1.011719 -10.144531 C 0.078125 -10.617188 -0.28125 -8.695312 0.390625 -8.097656 C 0.25 -7.714844 0.078125 -7.351562 -0.128906 -7.011719 C -0.304688 -6.71875 0.160156 -6.449219 0.335938 -6.742188 C 0.457031 -6.949219 0.699219 -7.394531 0.917969 -7.890625 C 1.339844 -7.90625 1.648438 -8.324219 1.976562 -8.628906 C 2.398438 -9.019531 2.34375 -8.8125 2.269531 -8.410156 C 2.214844 -8.0625 2.125 -7.714844 2.042969 -7.375 C 1.824219 -6.433594 1.066406 -4.394531 1.789062 -3.511719 C 3.054688 -1.976562 4.472656 -6.328125 4.625 -6.949219 C 4.703125 -7.285156 4.191406 -7.429688 4.113281 -7.09375 Z M 0.664062 -8.964844 C 0.640625 -8.867188 0.609375 -8.773438 0.585938 -8.675781 C 0.492188 -8.847656 0.53125 -9.175781 0.578125 -9.335938 C 0.804688 -10.039062 0.722656 -9.226562 0.664062 -8.964844 Z M 0.664062 -8.964844 "/></g></g></g><g fill="#8c52ff" fill-opacity="1"><g transform="translate(53.0651, 21.825)"><g><path d="M 2.585938 -6.84375 C 2.3125 -6.324219 2.007812 -5.8125 1.65625 -5.335938 C 1.480469 -5.09375 1.15625 -4.59375 0.847656 -4.503906 C 0.128906 -4.285156 0.324219 -5.628906 0.363281 -6.078125 C 0.425781 -6.699219 0.917969 -8.136719 0.328125 -8.648438 C -0.164062 -9.078125 -0.730469 -8.429688 -0.929688 -8.015625 C -1.082031 -7.703125 -0.621094 -7.4375 -0.476562 -7.746094 C -0.0351562 -8.128906 0.128906 -8.097656 0.0195312 -7.660156 C 0.0078125 -7.503906 -0.0117188 -7.34375 -0.03125 -7.1875 C -0.0664062 -6.871094 -0.117188 -6.554688 -0.152344 -6.238281 C -0.214844 -5.707031 -0.285156 -5.09375 -0.144531 -4.558594 C -0.0234375 -4.113281 0.292969 -3.804688 0.777344 -3.902344 C 1.832031 -4.105469 2.597656 -5.726562 3.046875 -6.578125 C 3.207031 -6.875 2.746094 -7.148438 2.585938 -6.84375 Z M -0.382812 -9.9375 C -0.457031 -9.90625 -0.53125 -9.875 -0.601562 -9.839844 C -0.734375 -9.785156 -0.765625 -9.589844 -0.699219 -9.472656 C -0.621094 -9.339844 -0.46875 -9.320312 -0.335938 -9.382812 C -0.261719 -9.414062 -0.1875 -9.445312 -0.117188 -9.480469 C 0.0195312 -9.535156 0.046875 -9.730469 -0.0195312 -9.84375 C -0.0976562 -9.980469 -0.25 -9.996094 -0.382812 -9.9375 Z M -0.382812 -9.9375 "/></g></g></g><g fill="#8c52ff" fill-opacity="1"><g transform="translate(55.898443, 21.825)"><g><path d="M 4.164062 -6.472656 C 3.328125 -6.328125 2.398438 -6.035156 1.558594 -5.585938 C 1.429688 -5.804688 1.289062 -6.019531 1.136719 -6.210938 C 0.433594 -7.125 -0.609375 -8.03125 -0.644531 -9.28125 C -0.667969 -10.101562 0.0859375 -11.769531 1.136719 -10.875 C 1.808594 -10.300781 1.507812 -9.238281 1.320312 -8.519531 C 1.230469 -8.183594 1.746094 -8.042969 1.835938 -8.371094 C 2.125 -9.480469 2.28125 -11.726562 0.523438 -11.660156 C -0.984375 -11.605469 -1.398438 -9.546875 -1.015625 -8.410156 C -0.695312 -7.4375 0.457031 -6.40625 1.125 -5.335938 C 0.40625 -4.878906 -0.214844 -4.300781 -0.597656 -3.601562 C -1.332031 -2.257812 -0.0664062 -1.148438 1.1875 -2.007812 C 2.320312 -2.78125 2.28125 -3.996094 1.8125 -5.082031 C 2.585938 -5.511719 3.425781 -5.804688 4.300781 -5.957031 C 4.644531 -6.011719 4.496094 -6.527344 4.164062 -6.472656 Z M 1.273438 -2.828125 C 1.101562 -2.59375 0.761719 -2.257812 0.433594 -2.234375 C -0.695312 -2.148438 -0.238281 -3.171875 0.0078125 -3.554688 C 0.304688 -4.023438 0.796875 -4.417969 1.246094 -4.726562 C 1.300781 -4.765625 1.351562 -4.796875 1.40625 -4.832031 C 1.710938 -4.175781 1.757812 -3.503906 1.273438 -2.828125 Z M 1.273438 -2.828125 "/></g></g></g><g fill="#8c52ff" fill-opacity="1"><g transform="translate(60.251819, 21.825)"><g/></g></g><g fill="#8c52ff" fill-opacity="1"><g transform="translate(63.489386, 21.825)"><g><path d="M 1.796875 -0.542969 C 3.96875 1.496094 6.859375 -2.496094 7.792969 -4.078125 C 7.972656 -4.375 7.507812 -4.644531 7.332031 -4.351562 C 6.632812 -3.15625 5.738281 -1.972656 4.605469 -1.15625 C 3.914062 -0.65625 2.980469 -0.269531 2.226562 -0.875 C 1.726562 -1.285156 1.527344 -1.953125 1.410156 -2.566406 C 0.914062 -5.191406 1.410156 -8.179688 2.203125 -10.683594 C 2.617188 -11.992188 3.15625 -13.257812 3.847656 -14.453125 C 4.179688 -15.035156 4.550781 -15.609375 5.007812 -16.105469 C 5.441406 -16.574219 6.925781 -17.964844 7.582031 -16.933594 C 8.226562 -15.925781 7.4375 -14 6.980469 -13.050781 C 6.734375 -12.535156 6.449219 -12.03125 6.109375 -11.574219 C 5.902344 -11.300781 6.363281 -11.03125 6.566406 -11.304688 C 7.613281 -12.691406 8.484375 -14.714844 8.257812 -16.476562 C 8.148438 -17.316406 7.625 -17.878906 6.734375 -17.78125 C 5.5625 -17.652344 4.617188 -16.574219 3.984375 -15.667969 C 2.335938 -13.332031 1.367188 -10.4375 0.957031 -7.625 C 0.75 -6.183594 0.65625 -4.691406 0.792969 -3.230469 C 0.871094 -2.292969 1.070312 -1.222656 1.796875 -0.542969 Z M 1.796875 -0.542969 "/></g></g></g><g fill="#8c52ff" fill-opacity="1"><g transform="translate(71.800931, 21.825)"><g><path d="M 3.96875 -6.734375 C 3.777344 -6.339844 3.457031 -6.164062 3.097656 -6.101562 C 3.117188 -6.171875 3.128906 -6.230469 3.140625 -6.292969 C 3.296875 -7.144531 3.101562 -8.316406 2.359375 -8.867188 C 0.902344 -9.9375 -1.050781 -7.144531 0.503906 -6.199219 C 0.535156 -6.175781 0.570312 -6.15625 0.609375 -6.132812 C 0.46875 -5.105469 0.722656 -3.941406 1.5625 -4.09375 C 2.152344 -4.199219 2.628906 -4.886719 2.902344 -5.539062 C 3.546875 -5.574219 4.125 -5.835938 4.429688 -6.460938 C 4.574219 -6.773438 4.121094 -7.046875 3.96875 -6.734375 Z M 2.082031 -5.214844 C 1.941406 -5.03125 1.558594 -4.605469 1.265625 -4.832031 C 1.121094 -4.941406 1.113281 -5.398438 1.167969 -5.867188 C 1.527344 -5.726562 1.917969 -5.617188 2.3125 -5.5625 C 2.246094 -5.445312 2.167969 -5.332031 2.082031 -5.214844 Z M 2.539062 -6.089844 C 2.332031 -6.109375 2.117188 -6.152344 1.917969 -6.207031 C 1.710938 -6.261719 1.480469 -6.324219 1.265625 -6.402344 C 1.355469 -6.804688 1.484375 -7.113281 1.59375 -7.070312 C 1.917969 -6.957031 2.058594 -7.472656 1.734375 -7.589844 C 1.277344 -7.753906 0.925781 -7.3125 0.734375 -6.699219 C 0.457031 -6.949219 0.359375 -7.300781 0.679688 -7.863281 C 0.960938 -8.359375 1.507812 -8.824219 2.160156 -8.332031 C 2.367188 -8.179688 2.488281 -7.789062 2.554688 -7.570312 C 2.703125 -7.082031 2.691406 -6.570312 2.539062 -6.089844 Z M 2.539062 -6.089844 "/></g></g></g><g fill="#8c52ff" fill-opacity="1"><g transform="translate(76.050946, 21.825)"><g><path d="M 7.976562 -5.441406 C 8.140625 -5.738281 7.683594 -6.011719 7.515625 -5.707031 C 7.199219 -5.152344 6.808594 -4.582031 6.171875 -4.367188 C 5.195312 -4.046875 4.683594 -4.699219 4.441406 -5.53125 C 4.09375 -6.710938 4.199219 -7.984375 4.273438 -9.195312 C 4.289062 -9.488281 3.917969 -9.515625 3.773438 -9.328125 C 3.101562 -8.445312 2.566406 -7.496094 2.171875 -6.480469 C 2.148438 -6.894531 2.140625 -7.3125 2.148438 -7.734375 C 2.152344 -7.984375 1.757812 -8.125 1.648438 -7.867188 C 1.472656 -7.449219 1.289062 -7.023438 1.113281 -6.597656 C 0.996094 -6.335938 0.886719 -5.964844 0.71875 -5.675781 C 0.589844 -6.265625 0.546875 -6.84375 0.585938 -7.441406 C 0.613281 -7.484375 0.632812 -7.539062 0.632812 -7.605469 C 0.632812 -7.726562 0.632812 -7.851562 0.632812 -7.972656 C 0.625 -8.324219 0.140625 -8.300781 0.0976562 -7.972656 C -0.03125 -6.972656 0.0429688 -6.023438 0.316406 -5.058594 C 0.363281 -4.90625 0.566406 -4.796875 0.710938 -4.898438 C 1.148438 -5.214844 1.429688 -5.773438 1.648438 -6.351562 C 1.679688 -5.945312 1.722656 -5.542969 1.777344 -5.140625 C 1.8125 -4.875 2.226562 -4.910156 2.292969 -5.140625 C 2.597656 -6.261719 3.0625 -7.296875 3.675781 -8.257812 C 3.585938 -6.773438 3.585938 -4.824219 4.734375 -4.027344 C 6.023438 -3.132812 7.363281 -4.363281 7.976562 -5.441406 Z M 7.976562 -5.441406 "/></g></g></g><g fill="#8c52ff" fill-opacity="1"><g transform="translate(83.809198, 21.825)"><g><path d="M 2.585938 -6.84375 C 2.3125 -6.324219 2.007812 -5.8125 1.65625 -5.335938 C 1.480469 -5.09375 1.15625 -4.59375 0.847656 -4.503906 C 0.128906 -4.285156 0.324219 -5.628906 0.363281 -6.078125 C 0.425781 -6.699219 0.917969 -8.136719 0.328125 -8.648438 C -0.164062 -9.078125 -0.730469 -8.429688 -0.929688 -8.015625 C -1.082031 -7.703125 -0.621094 -7.4375 -0.476562 -7.746094 C -0.0351562 -8.128906 0.128906 -8.097656 0.0195312 -7.660156 C 0.0078125 -7.503906 -0.0117188 -7.34375 -0.03125 -7.1875 C -0.0664062 -6.871094 -0.117188 -6.554688 -0.152344 -6.238281 C -0.214844 -5.707031 -0.285156 -5.09375 -0.144531 -4.558594 C -0.0234375 -4.113281 0.292969 -3.804688 0.777344 -3.902344 C 1.832031 -4.105469 2.597656 -5.726562 3.046875 -6.578125 C 3.207031 -6.875 2.746094 -7.148438 2.585938 -6.84375 Z M -0.382812 -9.9375 C -0.457031 -9.90625 -0.53125 -9.875 -0.601562 -9.839844 C -0.734375 -9.785156 -0.765625 -9.589844 -0.699219 -9.472656 C -0.621094 -9.339844 -0.46875 -9.320312 -0.335938 -9.382812 C -0.261719 -9.414062 -0.1875 -9.445312 -0.117188 -9.480469 C 0.0195312 -9.535156 0.046875 -9.730469 -0.0195312 -9.84375 C -0.0976562 -9.980469 -0.25 -9.996094 -0.382812 -9.9375 Z M -0.382812 -9.9375 "/></g></g></g><g fill="#8c52ff" fill-opacity="1"><g transform="translate(86.642541, 21.825)"><g><path d="M 5.347656 -6.851562 C 5.0625 -6.492188 4.535156 -5.71875 4.066406 -5.597656 C 3.023438 -5.332031 2.992188 -7.539062 2.835938 -8.074219 C 2.773438 -8.269531 2.53125 -8.335938 2.390625 -8.195312 C 1.660156 -7.464844 1.289062 -6.523438 0.667969 -5.71875 C 0.53125 -5.542969 0.457031 -5.3125 0.324219 -5.433594 C 0.253906 -5.496094 0.371094 -6.324219 0.382812 -6.40625 C 0.417969 -6.886719 0.488281 -7.355469 0.566406 -7.832031 C 0.6875 -7.835938 0.796875 -7.921875 0.777344 -8.082031 C 0.761719 -8.277344 0.734375 -8.464844 0.71875 -8.660156 C 0.6875 -8.933594 0.253906 -9.046875 0.1875 -8.730469 C 0.0078125 -7.800781 -0.128906 -6.871094 -0.1875 -5.921875 C -0.214844 -5.566406 -0.316406 -4.875 0.183594 -4.757812 C 0.589844 -4.660156 0.917969 -5.160156 1.113281 -5.421875 C 1.601562 -6.0625 1.933594 -6.789062 2.421875 -7.421875 C 2.5625 -6.5 2.617188 -5.207031 3.570312 -4.996094 C 4.4375 -4.800781 5.261719 -5.894531 5.726562 -6.472656 C 5.9375 -6.742188 5.566406 -7.121094 5.347656 -6.851562 Z M 5.347656 -6.851562 "/></g></g></g><g fill="#8c52ff" fill-opacity="1"><g transform="translate(92.157224, 21.825)"><g><path d="M 3.96875 -6.734375 C 3.777344 -6.339844 3.457031 -6.164062 3.097656 -6.101562 C 3.117188 -6.171875 3.128906 -6.230469 3.140625 -6.292969 C 3.296875 -7.144531 3.101562 -8.316406 2.359375 -8.867188 C 0.902344 -9.9375 -1.050781 -7.144531 0.503906 -6.199219 C 0.535156 -6.175781 0.570312 -6.15625 0.609375 -6.132812 C 0.46875 -5.105469 0.722656 -3.941406 1.5625 -4.09375 C 2.152344 -4.199219 2.628906 -4.886719 2.902344 -5.539062 C 3.546875 -5.574219 4.125 -5.835938 4.429688 -6.460938 C 4.574219 -6.773438 4.121094 -7.046875 3.96875 -6.734375 Z M 2.082031 -5.214844 C 1.941406 -5.03125 1.558594 -4.605469 1.265625 -4.832031 C 1.121094 -4.941406 1.113281 -5.398438 1.167969 -5.867188 C 1.527344 -5.726562 1.917969 -5.617188 2.3125 -5.5625 C 2.246094 -5.445312 2.167969 -5.332031 2.082031 -5.214844 Z M 2.539062 -6.089844 C 2.332031 -6.109375 2.117188 -6.152344 1.917969 -6.207031 C 1.710938 -6.261719 1.480469 -6.324219 1.265625 -6.402344 C 1.355469 -6.804688 1.484375 -7.113281 1.59375 -7.070312 C 1.917969 -6.957031 2.058594 -7.472656 1.734375 -7.589844 C 1.277344 -7.753906 0.925781 -7.3125 0.734375 -6.699219 C 0.457031 -6.949219 0.359375 -7.300781 0.679688 -7.863281 C 0.960938 -8.359375 1.507812 -8.824219 2.160156 -8.332031 C 2.367188 -8.179688 2.488281 -7.789062 2.554688 -7.570312 C 2.703125 -7.082031 2.691406 -6.570312 2.539062 -6.089844 Z M 2.539062 -6.089844 "/></g></g></g><g fill="#8c52ff" fill-opacity="1"><g transform="translate(96.407238, 21.825)"><g><path d="M 6.566406 -14.804688 C 5.0625 -14.894531 3.558594 -14.890625 2.0625 -14.804688 C 2.183594 -15.664062 2.3125 -16.515625 2.445312 -17.367188 C 2.5625 -17.410156 2.660156 -17.523438 2.636719 -17.683594 C 2.605469 -17.847656 2.574219 -18.019531 2.550781 -18.1875 C 2.507812 -18.4375 2.074219 -18.445312 2.03125 -18.1875 C 1.855469 -17.050781 1.679688 -15.914062 1.527344 -14.773438 C -0.078125 -14.652344 -1.671875 -14.441406 -3.253906 -14.125 C -3.535156 -14.070312 -3.488281 -13.691406 -3.253906 -13.605469 C -2.714844 -13.417969 -2.207031 -13.339844 -1.628906 -13.367188 C -1.328125 -13.382812 -1.296875 -13.808594 -1.535156 -13.886719 C -0.542969 -14.039062 0.449219 -14.152344 1.453125 -14.234375 C 1.039062 -11.105469 0.773438 -7.960938 0.847656 -4.808594 C 0.871094 -3.753906 0.90625 -2.683594 1.050781 -1.644531 C 1.125 -1.109375 1.210938 -0.144531 1.671875 0.21875 C 2.867188 1.15625 3.019531 -2.367188 3 -2.847656 C 2.980469 -3.1875 2.453125 -3.1875 2.464844 -2.847656 C 2.484375 -2.476562 2.539062 -0.285156 1.851562 -0.535156 C 1.667969 -0.601562 1.558594 -1.832031 1.546875 -1.945312 C 1.507812 -2.261719 1.484375 -2.578125 1.464844 -2.894531 C 1.351562 -4.570312 1.339844 -6.25 1.410156 -7.921875 C 1.496094 -10.046875 1.714844 -12.164062 1.988281 -14.269531 C 3.335938 -14.347656 4.683594 -14.355469 6.035156 -14.292969 C 6.066406 -14.164062 6.1875 -14.050781 6.359375 -14.097656 C 6.578125 -14.152344 6.613281 -14.171875 6.753906 -14.347656 C 6.902344 -14.53125 6.808594 -14.785156 6.566406 -14.804688 Z M 6.566406 -14.804688 "/></g></g></g><g fill="#8c52ff" fill-opacity="1"><g transform="translate(99.228421, 21.825)"><g><path d="M 6.566406 -14.804688 C 5.0625 -14.894531 3.558594 -14.890625 2.0625 -14.804688 C 2.183594 -15.664062 2.3125 -16.515625 2.445312 -17.367188 C 2.5625 -17.410156 2.660156 -17.523438 2.636719 -17.683594 C 2.605469 -17.847656 2.574219 -18.019531 2.550781 -18.1875 C 2.507812 -18.4375 2.074219 -18.445312 2.03125 -18.1875 C 1.855469 -17.050781 1.679688 -15.914062 1.527344 -14.773438 C -0.078125 -14.652344 -1.671875 -14.441406 -3.253906 -14.125 C -3.535156 -14.070312 -3.488281 -13.691406 -3.253906 -13.605469 C -2.714844 -13.417969 -2.207031 -13.339844 -1.628906 -13.367188 C -1.328125 -13.382812 -1.296875 -13.808594 -1.535156 -13.886719 C -0.542969 -14.039062 0.449219 -14.152344 1.453125 -14.234375 C 1.039062 -11.105469 0.773438 -7.960938 0.847656 -4.808594 C 0.871094 -3.753906 0.90625 -2.683594 1.050781 -1.644531 C 1.125 -1.109375 1.210938 -0.144531 1.671875 0.21875 C 2.867188 1.15625 3.019531 -2.367188 3 -2.847656 C 2.980469 -3.1875 2.453125 -3.1875 2.464844 -2.847656 C 2.484375 -2.476562 2.539062 -0.285156 1.851562 -0.535156 C 1.667969 -0.601562 1.558594 -1.832031 1.546875 -1.945312 C 1.507812 -2.261719 1.484375 -2.578125 1.464844 -2.894531 C 1.351562 -4.570312 1.339844 -6.25 1.410156 -7.921875 C 1.496094 -10.046875 1.714844 -12.164062 1.988281 -14.269531 C 3.335938 -14.347656 4.683594 -14.355469 6.035156 -14.292969 C 6.066406 -14.164062 6.1875 -14.050781 6.359375 -14.097656 C 6.578125 -14.152344 6.613281 -14.171875 6.753906 -14.347656 C 6.902344 -14.53125 6.808594 -14.785156 6.566406 -14.804688 Z M 6.566406 -14.804688 "/></g></g></g><g fill="#8c52ff" fill-opacity="1"><g transform="translate(102.049603, 21.825)"><g><path d="M 2.585938 -6.84375 C 2.3125 -6.324219 2.007812 -5.8125 1.65625 -5.335938 C 1.480469 -5.09375 1.15625 -4.59375 0.847656 -4.503906 C 0.128906 -4.285156 0.324219 -5.628906 0.363281 -6.078125 C 0.425781 -6.699219 0.917969 -8.136719 0.328125 -8.648438 C -0.164062 -9.078125 -0.730469 -8.429688 -0.929688 -8.015625 C -1.082031 -7.703125 -0.621094 -7.4375 -0.476562 -7.746094 C -0.0351562 -8.128906 0.128906 -8.097656 0.0195312 -7.660156 C 0.0078125 -7.503906 -0.0117188 -7.34375 -0.03125 -7.1875 C -0.0664062 -6.871094 -0.117188 -6.554688 -0.152344 -6.238281 C -0.214844 -5.707031 -0.285156 -5.09375 -0.144531 -4.558594 C -0.0234375 -4.113281 0.292969 -3.804688 0.777344 -3.902344 C 1.832031 -4.105469 2.597656 -5.726562 3.046875 -6.578125 C 3.207031 -6.875 2.746094 -7.148438 2.585938 -6.84375 Z M -0.382812 -9.9375 C -0.457031 -9.90625 -0.53125 -9.875 -0.601562 -9.839844 C -0.734375 -9.785156 -0.765625 -9.589844 -0.699219 -9.472656 C -0.621094 -9.339844 -0.46875 -9.320312 -0.335938 -9.382812 C -0.261719 -9.414062 -0.1875 -9.445312 -0.117188 -9.480469 C 0.0195312 -9.535156 0.046875 -9.730469 -0.0195312 -9.84375 C -0.0976562 -9.980469 -0.25 -9.996094 -0.382812 -9.9375 Z M -0.382812 -9.9375 "/></g></g></g></svg>